<svg width="22" height="22" viewBox="0 0 22 22" fill="none" xmlns="http://www.w3.org/2000/svg">
<path d="M10.9998 0C4.93521 0 0 4.93424 0 10.9996C0 17.0649 4.93489 22 10.9998 22C17.0658 22 21.9996 17.0653 21.9996 10.9996C21.9996 4.93424 17.0661 0 10.9998 0ZM15.7605 8.7459L9.99952 14.5069C9.82654 14.6797 9.59858 14.7669 9.37274 14.7669C9.14517 14.7669 8.91933 14.6797 8.74577 14.5069L6.24027 12.0014C5.89387 11.6547 5.89387 11.0938 6.24027 10.7475C6.58661 10.4012 7.14742 10.4012 7.49383 10.7475L9.37274 12.6271L14.5077 7.49184C14.8533 7.14588 15.4141 7.14588 15.7605 7.49184C16.1069 7.83875 16.1069 8.39956 15.7605 8.7459Z" fill="#8BC34A"/>
</svg>
