<svg width="1439" height="72" viewBox="0 0 1439 72" fill="none" xmlns="http://www.w3.org/2000/svg">
<path d="M1439 72C1437.04 48.1139 1410.68 29.1905 1378.5 29.1905C1349.78 29.1905 1325.76 44.2251 1319.51 64.4013C1305.35 40.4664 1273.68 23.7234 1236.68 23.7234C1207.85 23.7234 1182.15 33.8929 1165.58 49.7573C1150.39 28.1979 1120.28 13.5214 1085.59 13.5214C1053.52 13.5214 1025.37 26.0827 1009.28 45.0386C1004.09 40.1872 997.346 36.2331 989.565 33.4884C981.784 30.7437 973.185 29.2835 964.446 29.223C941.911 29.223 922.397 38.8393 912.675 52.9139C886.718 25.9525 844.763 8.39594 797.216 8.39594C752.17 8.39594 712.055 24.1627 685.957 48.7647C673.357 30.2481 647.778 17.5729 618.258 17.5729C587.866 17.5729 561.626 31.0128 549.474 50.4081C544.074 45.4649 537.1 41.4432 529.089 38.6531C521.079 35.8629 512.245 34.3791 503.271 34.3159C478.565 34.3159 457.328 45.4454 447.89 61.4074C436.422 33.6651 402.065 13.5214 361.431 13.5214C326.036 13.5214 295.219 28.9139 280.4 51.303C276.995 47.1198 272.059 43.625 266.085 41.167C260.11 38.7089 253.306 37.3734 246.35 37.2935C240.481 37.337 234.703 38.293 229.445 40.0904C224.186 41.8878 219.584 44.4803 215.981 47.6746C197.104 19.4115 158.193 0 113.264 0C56.3726 0 9.15554 31.1268 0 72H1439Z" fill="white"/>
</svg>
