<svg width="1440" height="102" viewBox="0 0 1440 102" fill="none" xmlns="http://www.w3.org/2000/svg">
<g style="mix-blend-mode:soft-light">
<path d="M1440 101.951V86.656C1440 38.7997 1388.5 0 1325.02 0C1280.18 0 1241.21 19.4325 1222.29 47.7423C1218.68 44.5433 1214.07 41.9474 1208.81 40.148C1203.54 38.3487 1197.76 37.3923 1191.89 37.3501C1184.93 37.4312 1178.13 38.7688 1172.16 41.2295C1166.19 43.6903 1161.26 47.1882 1157.86 51.3746C1143.03 28.945 1112.31 13.5359 1076.81 13.5359C1036.17 13.5359 1001.81 33.7014 990.339 61.49C980.899 45.5107 959.659 34.3692 934.949 34.3692C925.979 34.4456 917.155 35.9422 909.156 38.7437C901.156 41.5451 894.196 45.5766 888.81 50.5276C876.632 31.0952 850.412 17.657 820.014 17.657C790.467 17.657 764.907 30.3459 752.281 48.8662C726.202 24.2539 686.058 8.47013 641.028 8.47013C593.473 8.47013 551.346 26.0457 525.551 53.0198C515.828 38.9301 496.31 29.3034 473.771 29.3034C465.031 29.364 456.43 30.8257 448.648 33.5734C440.866 36.3211 434.116 40.2794 428.93 45.1361C412.835 26.176 384.68 13.5848 352.583 13.5848C317.914 13.5848 287.799 28.2447 272.601 49.8761C256.08 34.0272 230.332 23.8141 201.492 23.8141C164.487 23.8141 132.697 40.5426 118.655 64.5359C112.377 44.3379 88.3279 29.2871 59.6533 29.2871C26.1642 29.2871 -1 49.7458 -1 74.977V102L1440 101.951Z" fill="white"/>
</g>
</svg>
