<svg width="45" height="58" viewBox="0 0 45 58" fill="none" xmlns="http://www.w3.org/2000/svg">
<path d="M5.09766 58H39.082C41.893 58 44.1797 55.7133 44.1797 52.9023V16.9922H32.2852C29.4742 16.9922 27.1875 14.7055 27.1875 11.8945V0H5.09766C2.2867 0 0 2.2867 0 5.09766V52.9023C0 55.7133 2.2867 58 5.09766 58ZM11.8945 23.9023H32.2852C33.2244 23.9023 33.9844 24.6623 33.9844 25.6016C33.9844 26.5408 33.2244 27.3008 32.2852 27.3008H11.8945C10.9553 27.3008 10.1953 26.5408 10.1953 25.6016C10.1953 24.6623 10.9553 23.9023 11.8945 23.9023ZM11.8945 30.6992H32.2852C33.2244 30.6992 33.9844 31.4592 33.9844 32.3984C33.9844 33.3377 33.2244 34.0977 32.2852 34.0977H11.8945C10.9553 34.0977 10.1953 33.3377 10.1953 32.3984C10.1953 31.4592 10.9553 30.6992 11.8945 30.6992ZM11.8945 37.4961H32.2852C33.2244 37.4961 33.9844 38.2561 33.9844 39.1953C33.9844 40.1345 33.2244 40.8945 32.2852 40.8945H11.8945C10.9553 40.8945 10.1953 40.1345 10.1953 39.1953C10.1953 38.2561 10.9553 37.4961 11.8945 37.4961ZM11.8945 44.293H25.4883C26.4275 44.293 27.1875 45.053 27.1875 45.9922C27.1875 46.9314 26.4275 47.6914 25.4883 47.6914H11.8945C10.9553 47.6914 10.1953 46.9314 10.1953 45.9922C10.1953 45.053 10.9553 44.293 11.8945 44.293Z" fill="url(#paint0_linear)"/>
<path d="M32.2852 13.5938H43.1841L30.5859 0.995651V11.8946C30.5859 12.8321 31.3476 13.5938 32.2852 13.5938Z" fill="url(#paint1_linear)"/>
<defs>
<linearGradient id="paint0_linear" x1="-4.77618" y1="-22.4091" x2="56.3591" y2="-14.6106" gradientUnits="userSpaceOnUse">
<stop stop-color="#FDD662"/>
<stop offset="1" stop-color="#FCA330"/>
</linearGradient>
<linearGradient id="paint1_linear" x1="29.224" y1="-3.8718" x2="46.4575" y2="-0.985798" gradientUnits="userSpaceOnUse">
<stop stop-color="#FDD662"/>
<stop offset="1" stop-color="#FCA330"/>
</linearGradient>
</defs>
</svg>
