<svg width="24" height="23" viewBox="0 0 24 23" fill="none" xmlns="http://www.w3.org/2000/svg">
<path d="M11.9551 0C5.45349 0 0.1875 5.18666 0.1875 11.5835C0.1875 16.7024 3.55891 21.0433 8.23358 22.5738C8.82196 22.6828 9.0377 22.3243 9.0377 22.0168C9.0377 21.7417 9.02789 21.0129 9.02299 20.0472C5.74964 20.7457 5.05928 18.4932 5.05928 18.4932C4.52385 17.1563 3.75013 16.7987 3.75013 16.7987C2.68419 16.0806 3.83251 16.0954 3.83251 16.0954C5.01417 16.1759 5.63491 17.2889 5.63491 17.2889C6.68418 19.06 8.3895 18.5482 9.06222 18.2525C9.16812 17.503 9.47114 16.9932 9.8075 16.7034C7.19411 16.4136 4.44736 15.4175 4.44736 10.9794C4.44736 9.71517 4.90336 8.68176 5.65844 7.87135C5.52606 7.57862 5.1289 6.40081 5.76141 4.80552C5.76141 4.80552 6.74694 4.49511 8.99749 5.99315C9.9389 5.73578 10.9391 5.60808 11.9394 5.60218C12.9396 5.60808 13.9399 5.73578 14.8813 5.99315C17.1171 4.49511 18.1027 4.80552 18.1027 4.80552C18.7352 6.40081 18.338 7.57862 18.2203 7.87135C18.9705 8.68176 19.4265 9.71517 19.4265 10.9794C19.4265 15.4293 16.6758 16.4087 14.0576 16.6936C14.4694 17.0413 14.8519 17.7515 14.8519 18.837C14.8519 20.3871 14.8372 21.6327 14.8372 22.0089C14.8372 22.3125 15.0431 22.6749 15.6462 22.559C20.3542 21.0384 23.7227 16.6946 23.7227 11.5835C23.7227 5.18666 18.4537 0 11.9551 0V0Z" fill="white"/>
</svg>
