<svg width="23" height="24" viewBox="0 0 23 24" fill="none" xmlns="http://www.w3.org/2000/svg">
<path d="M22.7506 7.34797C22.6977 6.14747 22.5036 5.32214 22.2255 4.60698C21.9386 3.84785 21.4972 3.16821 20.919 2.60322C20.354 2.02944 19.6699 1.58358 18.9195 1.30117C18.2002 1.02308 17.3792 0.828941 16.1787 0.776011C14.9693 0.718598 14.5853 0.705322 11.5178 0.705322C8.45027 0.705322 8.06631 0.718598 6.86134 0.771528C5.66084 0.824458 4.83552 1.01877 4.12053 1.29669C3.36124 1.58358 2.6816 2.02495 2.11661 2.60322C1.54283 3.16821 1.09715 3.85234 0.814569 4.60267C0.536471 5.32214 0.342338 6.14299 0.289408 7.34348C0.231995 8.55295 0.218719 8.9369 0.218719 12.0044C0.218719 15.072 0.231995 15.4559 0.284925 16.6609C0.337855 17.8614 0.532161 18.6867 0.810258 19.4019C1.09715 20.161 1.54283 20.8407 2.11661 21.4057C2.6816 21.9794 3.36572 22.4253 4.11605 22.7077C4.83552 22.9858 5.65636 23.1799 6.85703 23.2329C8.06183 23.286 8.44596 23.2991 11.5135 23.2991C14.581 23.2991 14.965 23.286 16.1699 23.2329C17.3704 23.1799 18.1957 22.9858 18.9107 22.7077C20.4291 22.1206 21.6296 20.9201 22.2167 19.4019C22.4946 18.6824 22.6889 17.8614 22.7419 16.6609C22.7948 15.4559 22.8081 15.072 22.8081 12.0044C22.8081 8.9369 22.8036 8.55295 22.7506 7.34797ZM20.716 16.5726C20.6674 17.6761 20.4821 18.2719 20.3276 18.6692C19.948 19.6534 19.1668 20.4346 18.1825 20.8143C17.7852 20.9688 17.1851 21.1541 16.086 21.2026C14.8943 21.2557 14.5369 21.2688 11.5223 21.2688C8.50768 21.2688 8.14579 21.2557 6.9584 21.2026C5.85498 21.1541 5.25913 20.9688 4.8619 20.8143C4.37208 20.6333 3.92623 20.3464 3.56434 19.9712C3.18917 19.6048 2.90228 19.1635 2.72125 18.6736C2.56677 18.2764 2.38143 17.6761 2.33298 16.5771C2.27988 15.3854 2.26678 15.0278 2.26678 12.0132C2.26678 8.99863 2.27988 8.63674 2.33298 7.44952C2.38143 6.34609 2.56677 5.75024 2.72125 5.353C2.90228 4.86301 3.18917 4.41733 3.56882 4.05526C3.93502 3.6801 4.37639 3.39321 4.86638 3.21235C5.26361 3.05787 5.86394 2.87253 6.96288 2.82391C8.15458 2.77098 8.51216 2.7577 11.5266 2.7577C14.5457 2.7577 14.9031 2.77098 16.0904 2.82391C17.1939 2.87253 17.7897 3.05787 18.187 3.21235C18.6768 3.39321 19.1226 3.6801 19.4845 4.05526C19.8597 4.42164 20.1466 4.86301 20.3276 5.353C20.4821 5.75024 20.6674 6.3504 20.716 7.44952C20.769 8.64122 20.7822 8.99863 20.7822 12.0132C20.7822 15.0278 20.769 15.3809 20.716 16.5726Z" fill="white"/>
<path d="M11.5178 6.20044C8.31355 6.20044 5.71377 8.80005 5.71377 12.0045C5.71377 15.2089 8.31355 17.8085 11.5178 17.8085C14.7222 17.8085 17.3218 15.2089 17.3218 12.0045C17.3218 8.80005 14.7222 6.20044 11.5178 6.20044ZM11.5178 15.7694C9.43904 15.7694 7.75287 14.0834 7.75287 12.0045C7.75287 9.92555 9.43904 8.23954 11.5178 8.23954C13.5967 8.23954 15.2827 9.92555 15.2827 12.0045C15.2827 14.0834 13.5967 15.7694 11.5178 15.7694V15.7694Z" fill="white"/>
<path d="M18.9065 5.97095C18.9065 6.71921 18.2998 7.32593 17.5513 7.32593C16.8031 7.32593 16.1963 6.71921 16.1963 5.97095C16.1963 5.22251 16.8031 4.61597 17.5513 4.61597C18.2998 4.61597 18.9065 5.22251 18.9065 5.97095V5.97095Z" fill="white"/>
</svg>
