<svg width="23" height="23" viewBox="0 0 23 23" fill="none" xmlns="http://www.w3.org/2000/svg">
<path d="M22.5879 22.5936V22.5927H22.5938V14.5214C22.5938 10.5729 21.6936 7.53125 16.8051 7.53125C14.4551 7.53125 12.878 8.749 12.2342 9.90348H12.1662V7.89988H7.53125V22.5927H12.3575V15.3173C12.3575 13.4018 12.7421 11.5495 15.2543 11.5495C17.7296 11.5495 17.7665 13.7355 17.7665 15.4402V22.5936H22.5879Z" fill="white"/>
<path d="M0 7.53125H4.70703V22.5936H0V7.53125Z" fill="white"/>
<path d="M2.82422 0C1.26512 0 0 1.25921 0 2.81102C0 4.36284 1.26512 5.64838 2.82422 5.64838C4.38332 5.64838 5.64844 4.36284 5.64844 2.81102C5.64746 1.25921 4.38234 0 2.82422 0V0Z" fill="white"/>
</svg>
