<svg width="56" height="54" viewBox="0 0 56 54" fill="none" xmlns="http://www.w3.org/2000/svg">
<path d="M55.8482 20.5051C55.6557 19.9047 55.1427 19.4671 54.5255 19.3764L37.1876 16.8263L29.4336 0.924413C29.1577 0.358334 28.588 0 27.9643 0C27.3406 0 26.7711 0.358334 26.495 0.924413L18.7407 16.8263L1.40289 19.3764C0.785824 19.4671 0.272964 19.9047 0.0802735 20.505C-0.112527 21.1055 0.0482676 21.7646 0.494928 22.2051L13.0403 34.5831L10.0792 52.0612C9.9737 52.6835 10.2265 53.3122 10.731 53.6834C11.0164 53.8932 11.3545 54 11.6943 54C11.9551 54 12.2168 53.9369 12.4565 53.8096L27.9643 45.5573L43.4713 53.8091C44.0233 54.1031 44.6925 54.0542 45.197 53.683C45.7016 53.3122 45.9545 52.683 45.849 52.0612L42.8868 34.5831L55.4336 22.2051C55.8802 21.7646 56.0412 21.1055 55.8482 20.5051Z" fill="url(#paint0_linear)"/>
<defs>
<linearGradient id="paint0_linear" x1="-6.04633" y1="-20.8636" x2="70.3092" y2="-7.62008" gradientUnits="userSpaceOnUse">
<stop stop-color="#FDD662"/>
<stop offset="1" stop-color="#FCA330"/>
</linearGradient>
</defs>
</svg>
