<svg width="206" height="482" viewBox="0 0 206 482" fill="none"
  xmlns="http://www.w3.org/2000/svg">
  <g style="mix-blend-mode:soft-light" opacity="0.5">
    <path d="M103.397 277.645C93.236 277.677 83.5021 281.738 76.3285 288.938C69.1549 296.139 65.1268 305.891 65.1268 316.058C65.1268 371.037 103.397 407.002 103.397 481.38C103.397 406.954 141.787 370.941 141.787 316.058C141.787 305.87 137.742 296.1 130.543 288.896C123.343 281.692 113.579 277.645 103.397 277.645Z" fill="white"/>
  </g>
  <g style="mix-blend-mode:soft-light">
    <path d="M103.397 277.645C100.02 277.635 96.6737 278.294 93.5517 279.583C90.4297 280.872 87.593 282.765 85.2049 285.155C82.8168 287.544 80.9244 290.383 79.6363 293.507C78.3483 296.631 77.6901 299.979 77.6996 303.358C77.6996 340.163 103.325 364.219 103.325 414.036C103.325 364.219 128.926 340.163 128.926 303.358C128.945 296.562 126.267 290.036 121.48 285.214C116.693 280.393 110.189 277.67 103.397 277.645Z" fill="white"/>
  </g>
  <path d="M72.0603 273.057L133.676 273.369L133.626 283.141C133.62 284.331 133.142 285.471 132.296 286.308C131.45 287.146 130.307 287.613 129.117 287.607L76.4749 287.341C75.285 287.335 74.1462 286.856 73.309 286.01C72.4718 285.164 72.0049 284.019 72.0109 282.828L72.0603 273.057Z" fill="url(#paint0_linear)"/>
  <path d="M167.316 185.549L201.195 233.253C203.187 236.077 204.547 239.298 205.18 242.695C205.814 246.093 205.707 249.588 204.866 252.94L188.862 317.931C188.757 318.433 188.516 318.898 188.167 319.274C187.818 319.65 187.373 319.925 186.881 320.068C186.388 320.211 185.865 320.217 185.369 320.086C184.873 319.955 184.422 319.691 184.064 319.323L132.885 272.603L167.316 185.549Z" fill="url(#paint1_linear)"/>
  <path d="M39.0456 185.116L4.85446 232.581C2.82215 235.391 1.42226 238.607 0.751252 242.01C0.0802444 245.413 0.153991 248.92 0.967407 252.292L16.5154 317.403C16.6217 317.904 16.861 318.368 17.2081 318.745C17.5552 319.122 17.9973 319.399 18.488 319.546C18.9788 319.693 19.5001 319.706 19.9974 319.582C20.4946 319.459 20.9495 319.203 21.3141 318.843L72.9008 272.387L39.0456 185.116Z" fill="url(#paint2_linear)"/>
  <path d="M104.093 0.420044C45.8358 47.8846 13.5641 197.961 60.424 269.314C61.0585 270.359 61.9439 271.23 62.9998 271.846C64.0557 272.462 65.2486 272.805 66.4704 272.843L139.196 273.251C140.422 273.217 141.621 272.879 142.684 272.267C143.748 271.656 144.643 270.789 145.29 269.746C192.87 198.921 161.822 48.4848 104.093 0.420044Z" fill="url(#paint3_linear)"/>
  <path d="M104.093 0.420044C83.0501 17.562 65.4387 48.1247 53.7058 83.537C35.0147 82.6247 153.688 83.9452 153.688 83.9452C142.195 48.4848 124.871 17.7781 104.093 0.420044Z" fill="url(#paint4_linear)"/>
  <path d="M126.578 169.191C139.913 156.342 140.313 135.109 127.472 121.767C114.63 108.424 93.411 108.024 80.0765 120.873C66.742 133.722 66.342 154.954 79.183 168.297C92.0241 181.639 113.244 182.04 126.578 169.191Z" fill="url(#paint5_linear)"/>
  <path d="M130.174 141.013C130.964 146.329 130.162 151.76 127.868 156.62C125.574 161.479 121.891 165.549 117.286 168.315C112.68 171.081 107.359 172.418 101.994 172.158C96.6291 171.898 91.4618 170.052 87.1452 166.853C82.8287 163.655 79.5567 159.248 77.743 154.189C75.9292 149.131 75.6552 143.647 76.9555 138.433C78.2558 133.218 81.0719 128.506 85.0481 124.893C89.0242 121.28 93.9817 118.927 99.2938 118.133C102.823 117.602 106.423 117.773 109.887 118.636C113.35 119.499 116.609 121.037 119.478 123.163C122.346 125.288 124.767 127.959 126.603 131.022C128.438 134.085 129.652 137.48 130.174 141.013Z" fill="url(#paint6_linear)"/>
  <path d="M130.174 141.013C129.277 134.987 126.378 129.439 121.944 125.264C121.944 126.008 121.944 126.752 122.112 127.472C122.842 130.765 122.891 134.172 122.256 137.484C121.8 138.98 121.004 140.351 119.93 141.488C118.856 142.625 117.533 143.498 116.065 144.038C111.89 145.551 106.972 144.182 102.917 146.007C97.9742 148.264 95.8627 154.53 90.92 156.883C88.5512 157.919 85.9217 158.204 83.386 157.699C81.5663 157.499 79.8299 156.829 78.3473 155.754C80.9456 161.825 85.6658 166.739 91.6242 169.579C97.5827 172.418 104.371 172.988 110.719 171.181C117.067 169.373 122.539 165.313 126.111 159.761C129.683 154.208 131.11 147.543 130.126 141.013H130.174Z" fill="url(#paint7_linear)"/>
  <g style="mix-blend-mode:overlay" opacity="0.4">
    <g style="mix-blend-mode:overlay" opacity="0.4">
      <path d="M104.093 122.407C103.517 122.407 102.917 122.407 102.341 122.407C102.045 122.43 101.757 122.512 101.494 122.648C101.23 122.784 100.996 122.971 100.805 123.199C100.429 123.666 100.24 124.257 100.278 124.855C100.32 125.418 100.574 125.944 100.988 126.327C101.402 126.71 101.945 126.922 102.509 126.92H102.725C103.188 126.896 103.653 126.896 104.117 126.92C104.718 126.906 105.291 126.666 105.724 126.248C106.133 125.811 106.364 125.238 106.372 124.639C106.332 124.052 106.077 123.501 105.657 123.089C105.237 122.677 104.68 122.435 104.093 122.407Z" fill="white"/>
    </g>
    <g style="mix-blend-mode:overlay" opacity="0.4">
      <path d="M96.5585 124.039C96.2861 123.92 95.992 123.859 95.6948 123.859C95.3975 123.859 95.1035 123.92 94.831 124.039C91.965 125.187 89.3644 126.911 87.1896 129.103C85.0149 131.296 83.3121 133.911 82.1863 136.788C82.078 137.065 82.0257 137.361 82.0323 137.659C82.0389 137.956 82.1044 138.25 82.2248 138.522C82.3452 138.794 82.5183 139.04 82.7341 139.245C82.9498 139.45 83.204 139.61 83.482 139.717C83.7305 139.83 84.0007 139.887 84.2737 139.885C84.7297 139.873 85.1727 139.731 85.551 139.475C85.9292 139.22 86.2269 138.863 86.4092 138.444C87.2943 136.136 88.6493 134.037 90.3882 132.28C92.1272 130.524 94.2121 129.148 96.5105 128.241C97.0655 128.004 97.5109 127.567 97.7582 127.016C97.9727 126.46 97.9727 125.844 97.7582 125.288C97.5275 124.737 97.0997 124.291 96.5585 124.039Z" fill="white"/>
    </g>
  </g>
  <g style="mix-blend-mode:soft-light">
    <path d="M61.1678 256.829C62.8474 262.231 64.6709 267.585 66.7104 272.915H98.526L96.8704 270.202C95.5028 267.801 94.2071 265.4 92.9355 263C90.3922 258.198 88.1367 253.06 85.7374 247.922C81.3855 237.541 77.7539 226.872 74.8682 215.991C69.0115 193.915 66.1387 171.152 66.3265 148.312C66.3614 136.763 67.163 125.23 68.7259 113.788L69.2537 109.49L69.9975 105.193L71.4851 96.5975L73.3566 88.0746L74.2923 83.8011L75.4201 79.5756C81.3879 56.8267 89.6941 34.7573 100.206 13.7206C87.3977 33.7617 76.6956 55.0745 68.27 77.3188L66.6624 81.5203L65.2468 85.7698L62.5595 94.4848L60.1601 103.152L58.9364 107.497L57.8807 111.891C55.0057 123.643 52.8899 135.567 51.5464 147.591C48.8006 171.935 49.309 196.536 53.058 220.745C54.9391 232.943 57.6486 245 61.1678 256.829Z" fill="white"/>
  </g>
  <path d="M102.557 335.169C100.036 335.169 97.6168 334.177 95.821 332.407C94.0252 330.637 92.9973 328.231 92.9595 325.71L92.0957 260.719C91.9667 252.664 92.6743 244.618 94.2072 236.71L100.422 204.563H105.94L111.843 236.782C113.283 244.701 113.91 252.745 113.714 260.791L112.203 325.758C112.152 328.279 111.112 330.68 109.307 332.441C107.503 334.202 105.078 335.182 102.557 335.169Z" fill="url(#paint8_linear)"/>
  <defs>
    <linearGradient id="paint0_linear" x1="102.906" y1="286.747" x2="102.908" y2="272.198" gradientUnits="userSpaceOnUse">
      <stop stop-color="white"/>
      <stop offset="0.13" stop-color="#EFF6FF"/>
      <stop offset="0.52" stop-color="#C6DFFF"/>
      <stop offset="0.82" stop-color="#ACD0FF"/>
      <stop offset="1" stop-color="#A2CBFF"/>
    </linearGradient>
    <linearGradient id="paint1_linear" x1="93.3502" y1="184.962" x2="166.079" y2="185.329" gradientUnits="userSpaceOnUse">
      <stop stop-color="#FC7200"/>
      <stop offset="0.5" stop-color="#FCA22E"/>
      <stop offset="1" stop-color="#FDD661"/>
    </linearGradient>
    <linearGradient id="paint2_linear" x1="13.8761" y1="299.012" x2="86.4093" y2="298.868" gradientUnits="userSpaceOnUse">
      <stop stop-color="#FDD661"/>
      <stop offset="0.5" stop-color="#FCA22E"/>
      <stop offset="1" stop-color="#FC7200"/>
    </linearGradient>
    <linearGradient id="paint3_linear" x1="25.657" y1="78.1352" x2="181.399" y2="233.783" gradientUnits="userSpaceOnUse">
      <stop stop-color="white"/>
      <stop offset="0.21" stop-color="#FBFDFF"/>
      <stop offset="0.42" stop-color="#EFF6FF"/>
      <stop offset="0.62" stop-color="#DBEBFF"/>
      <stop offset="0.83" stop-color="#BFDBFF"/>
      <stop offset="1" stop-color="#A2CBFF"/>
    </linearGradient>
    <linearGradient id="paint4_linear" x1="47144.5" y1="8245.19" x2="49426.6" y2="11032.4" gradientUnits="userSpaceOnUse">
      <stop stop-color="#FDD661"/>
      <stop offset="0.5" stop-color="#FCA22E"/>
      <stop offset="1" stop-color="#FC7200"/>
    </linearGradient>
    <linearGradient id="paint5_linear" x1="80.0777" y1="120.273" x2="127.268" y2="167.945" gradientUnits="userSpaceOnUse">
      <stop stop-color="#FCC715"/>
      <stop offset="0.08" stop-color="#FCC019"/>
      <stop offset="0.43" stop-color="#FDA729"/>
      <stop offset="0.75" stop-color="#FD9732"/>
      <stop offset="1" stop-color="#FD9235"/>
    </linearGradient>
    <linearGradient id="paint6_linear" x1="84.1298" y1="182.019" x2="122.687" y2="220.313" gradientUnits="userSpaceOnUse">
      <stop stop-color="#2559CD"/>
      <stop offset="0.35" stop-color="#2255CC"/>
      <stop offset="0.69" stop-color="#1B4AC7"/>
      <stop offset="1" stop-color="#0F38C1"/>
    </linearGradient>
    <linearGradient id="paint7_linear" x1="96.2706" y1="194.096" x2="122.68" y2="220.321" gradientUnits="userSpaceOnUse">
      <stop stop-color="#0F38C1"/>
      <stop offset="0.35" stop-color="#143FC3"/>
      <stop offset="0.85" stop-color="#2052CA"/>
      <stop offset="1" stop-color="#2559CD"/>
    </linearGradient>
    <linearGradient id="paint8_linear" x1="-113641" y1="407038" x2="-112448" y2="407246" gradientUnits="userSpaceOnUse">
      <stop stop-color="#FDD661"/>
      <stop offset="0.5" stop-color="#FCA22E"/>
      <stop offset="1" stop-color="#FC7200"/>
    </linearGradient>
  </defs>
</svg>
