<svg width="54" height="54" viewBox="0 0 54 54" fill="none" xmlns="http://www.w3.org/2000/svg">
<path d="M54 27C54 12.1119 41.8881 0 27 0C12.1119 0 0 12.1119 0 27C0 31.8521 1.29152 36.5763 3.74401 40.7239L0.0992647 53.9002L13.2761 50.256C17.4237 52.7085 22.1479 54 27 54C41.8881 54 54 41.8881 54 27ZM22.8568 20.7161H18.7136C18.7136 16.1467 22.4306 12.4297 27 12.4297C31.5694 12.4297 35.2864 16.1467 35.2864 20.7161C35.2864 23.0353 34.3046 25.2645 32.5917 26.8311L29.0716 30.0529V33.2839H24.9284V28.2284L29.7945 23.7744C30.6642 22.9787 31.1432 21.8927 31.1432 20.7161C31.1432 18.4314 29.2847 16.5729 27 16.5729C24.7153 16.5729 22.8568 18.4314 22.8568 20.7161ZM24.9284 37.4271H29.0716V41.5703H24.9284V37.4271Z" fill="url(#paint0_linear)"/>
<defs>
<linearGradient id="paint0_linear" x1="-5.83784" y1="-20.8636" x2="68.0309" y2="-8.49319" gradientUnits="userSpaceOnUse">
<stop stop-color="#FDD662"/>
<stop offset="1" stop-color="#FCA330"/>
</linearGradient>
</defs>
</svg>
