<svg width="26" height="22" viewBox="0 0 26 22" fill="none" xmlns="http://www.w3.org/2000/svg">
<path d="M25.7343 3.09907C24.7891 3.51489 23.7819 3.7905 22.7318 3.92432C23.8121 3.27751 24.6366 2.26108 25.0242 1.03595C24.017 1.63816 22.905 2.06353 21.7199 2.30091C20.7635 1.2797 19.4005 0.647217 17.9136 0.647217C15.0286 0.647217 12.706 2.99552 12.706 5.87434C12.706 6.28856 12.741 6.68684 12.8268 7.06601C8.49461 6.85413 4.66126 4.77188 2.0861 1.59992C1.63652 2.38216 1.37281 3.27751 1.37281 4.24136C1.37281 6.05118 2.30215 7.65548 3.68743 8.58429C2.85023 8.56835 2.02891 8.3246 1.33309 7.94065C1.33309 7.95658 1.33309 7.9773 1.33309 7.99801C1.33309 10.5375 3.13936 12.6468 5.508 13.1327C5.08383 13.249 4.62154 13.3048 4.14178 13.3048C3.80817 13.3048 3.47138 13.2857 3.15525 13.2156C3.83041 15.2851 5.74629 16.8065 8.02438 16.8559C6.25147 18.2467 4.00039 19.0847 1.56344 19.0847C1.13611 19.0847 0.72624 19.0656 0.316376 19.013C2.62464 20.5058 5.36025 21.3582 8.31033 21.3582C17.8993 21.3582 23.1417 13.3924 23.1417 6.4877C23.1417 6.25669 23.1338 6.03365 23.1226 5.81221C24.1568 5.07617 25.0258 4.15692 25.7343 3.09907Z" fill="white"/>
</svg>
