<svg width="23" height="23" viewBox="0 0 23 23" fill="none" xmlns="http://www.w3.org/2000/svg">
<path d="M11.7059 0H11.7003C5.47149 0 0.40625 5.06665 0.40625 11.2969C0.40625 13.7681 1.20268 16.0585 2.55689 17.9183L1.14902 22.115L5.49126 20.7269C7.27757 21.9103 9.40845 22.5938 11.7059 22.5938C17.9348 22.5938 23 17.5257 23 11.2969C23 5.06806 17.9348 0 11.7059 0Z" fill="white"/>
<path d="M18.2793 15.9527C18.0068 16.7223 16.9251 17.3606 16.0623 17.547C15.472 17.6726 14.701 17.7729 12.1056 16.6969C8.7857 15.3215 6.64777 11.9479 6.48114 11.7291C6.32157 11.5102 5.13964 9.94275 5.13964 8.32164C5.13964 6.70054 5.9629 5.91117 6.29474 5.57227C6.56728 5.29408 7.01774 5.16699 7.44985 5.16699C7.58965 5.16699 7.71532 5.17405 7.82829 5.1797C8.16014 5.19382 8.32677 5.21359 8.54564 5.73748C8.81818 6.39412 9.48187 8.01522 9.56095 8.18185C9.64144 8.34847 9.72193 8.57441 9.60896 8.79329C9.50306 9.01923 9.40986 9.11949 9.24323 9.31153C9.0766 9.50358 8.91844 9.65044 8.75181 9.85661C8.5993 10.0359 8.42703 10.228 8.61907 10.5598C8.81112 10.8846 9.47481 11.9677 10.452 12.8376C11.713 13.9602 12.7354 14.3189 13.1011 14.4714C13.3736 14.5843 13.6984 14.5575 13.8975 14.3457C14.1503 14.0732 14.4624 13.6213 14.7801 13.1765C15.006 12.8573 15.2913 12.8178 15.5907 12.9308C15.8957 13.0367 17.5097 13.8345 17.8416 13.9997C18.1734 14.1664 18.3923 14.2454 18.4728 14.3852C18.5519 14.525 18.5519 15.1817 18.2793 15.9527Z" fill="#1540C4"/>
</svg>
